<?xml version="1.0" standalone="no"?>
<!DOCTYPE svg PUBLIC "-//W3C//DTD SVG 20010904//EN"
 "http://www.w3.org/TR/2001/REC-SVG-20010904/DTD/svg10.dtd">
<svg version="1.0" xmlns="http://www.w3.org/2000/svg"
 width="512.000000pt" height="512.000000pt" viewBox="0 0 512.000000 512.000000"
 preserveAspectRatio="xMidYMid meet">
<metadata>
Created by potrace 1.11, written by Peter Selinger 2001-2013
</metadata>
<g transform="translate(0.000000,512.000000) scale(0.100000,-0.100000)"
fill="#000000" stroke="none">
<path d="M0 2560 l0 -2560 2560 0 2560 0 0 2560 0 2560 -2560 0 -2560 0 0
-2560z m2075 1395 c98 -26 181 -70 247 -132 61 -59 111 -143 124 -210 6 -33 7
-33 63 -33 81 0 158 -25 198 -65 51 -51 43 -88 -28 -124 -14 -7 -45 -30 -69
-50 l-44 -38 48 -44 c90 -83 188 -263 220 -401 19 -86 29 -192 21 -228 -6 -26
-11 -30 -40 -30 -29 0 -35 4 -44 33 -5 17 -13 57 -17 87 -21 175 -123 362
-252 465 -69 54 -203 125 -292 153 -265 85 -533 70 -760 -43 -223 -112 -351
-294 -396 -564 -9 -53 -21 -102 -26 -108 -17 -21 -65 -15 -82 9 -32 45 -11
214 42 345 33 81 93 171 154 233 65 66 68 84 22 132 -45 46 -83 68 -117 68
-35 0 -59 23 -59 55 0 59 98 115 202 115 45 0 60 10 60 39 0 70 128 215 239
271 76 38 173 69 252 80 86 12 260 4 334 -15z m-400 -942 c30 -46 32 -91 4
-127 -18 -23 -27 -26 -84 -26 -74 0 -85 10 -85 83 0 47 22 76 70 96 47 19 68
13 95 -26z m619 15 c10 -13 16 -43 16 -73 0 -69 -19 -95 -71 -95 -47 0 -94 22
-109 51 -17 32 -3 96 27 119 37 29 116 28 137 -2z m1707 -20 c22 -24 54 -72
72 -108 28 -57 32 -74 32 -147 0 -97 -20 -136 -74 -141 -39 -4 -46 12 -33 75
11 52 -1 148 -23 171 -9 10 -19 -5 -49 -76 -20 -49 -53 -108 -72 -131 -32 -37
-41 -42 -73 -39 -33 3 -36 6 -39 36 -2 24 4 41 23 64 36 43 59 91 86 178 39
129 55 160 84 160 17 0 39 -14 66 -42z m-3032 -746 c50 -89 91 -167 91 -172 0
-5 -9 -14 -19 -20 -18 -9 -24 -3 -53 52 -18 35 -36 62 -40 61 -5 -2 -42 -3
-84 -3 l-75 0 -27 -60 c-15 -32 -29 -59 -32 -59 -3 0 -13 6 -22 13 -16 12 -12
23 49 142 78 154 113 217 118 212 2 -2 45 -77 94 -166z m996 -15 c82 -150 86
-159 69 -172 -22 -17 -31 -8 -70 68 -18 35 -30 47 -40 43 -9 -3 -46 -6 -84 -6
l-67 0 -27 -60 c-23 -55 -28 -60 -46 -50 -11 6 -20 13 -20 17 0 3 39 82 87
174 68 130 90 166 99 156 7 -6 51 -83 99 -170z m496 51 l128 -133 1 96 c0 129
7 161 33 157 18 -3 20 -10 18 -103 0 -55 -4 -136 -8 -180 l-6 -79 -133 139
-133 140 -1 -132 0 -133 -27 0 -26 0 6 122 c4 66 7 147 7 180 0 32 3 58 6 58
4 0 64 -60 135 -132z m1658 -47 c84 -151 90 -165 74 -177 -10 -7 -20 -13 -23
-14 -3 0 -21 29 -40 65 -23 43 -39 64 -48 60 -7 -3 -45 -5 -83 -5 l-70 0 -26
-60 c-26 -60 -38 -68 -56 -39 -7 11 14 60 78 183 48 92 91 164 95 159 5 -4 49
-82 99 -172z m-3479 149 c0 -14 -11 -22 -42 -30 -57 -15 -114 -54 -138 -93
-58 -95 27 -189 157 -174 40 4 43 3 43 -19 0 -22 -4 -24 -51 -24 -74 0 -134
18 -175 54 -31 27 -37 39 -41 82 -8 84 46 155 153 199 73 30 94 31 94 5z m636
-1 c45 -14 69 -44 68 -87 0 -53 -28 -89 -95 -120 l-59 -27 0 -47 c0 -44 -2
-48 -24 -48 l-25 0 3 173 c2 94 4 173 5 173 4 4 101 -9 127 -17z m421 -13 c-5
-12 -22 -16 -72 -16 l-65 0 0 -150 0 -150 -25 0 -25 0 0 150 0 150 -70 0 c-63
0 -70 2 -70 20 0 18 8 20 158 22 86 2 161 0 166 -4 5 -4 6 -14 3 -22z m483
-141 l0 -175 -25 0 -25 0 0 175 0 175 25 0 25 0 0 -175z m775 45 c21 -63 40
-118 44 -122 3 -4 31 36 60 89 41 73 57 94 63 83 5 -8 31 -52 57 -98 l48 -83
48 126 c26 69 53 125 59 125 36 -1 33 -18 -30 -170 -35 -85 -68 -158 -72 -162
-4 -4 -31 36 -61 88 -30 52 -57 94 -60 94 -3 0 -30 -45 -60 -100 -30 -55 -57
-100 -61 -100 -3 0 -32 75 -64 167 -53 156 -56 169 -39 180 9 7 20 10 24 6 3
-5 23 -60 44 -123z m535 50 l0 -80 38 0 c20 0 67 3 104 6 l67 7 3 71 c3 68 4
71 28 71 l25 0 0 -172 0 -173 -27 0 -28 0 0 80 0 80 -59 0 c-32 0 -79 -3 -105
-6 l-46 -7 0 -73 c0 -72 -1 -74 -25 -74 l-25 0 0 175 0 175 25 0 c25 0 25 -1
25 -80z m850 -75 l0 -155 55 0 c53 0 55 -1 55 -26 0 -26 -1 -27 -52 -20 -29 3
-66 6 -83 6 l-30 0 3 175 3 175 24 0 25 0 0 -155z m370 135 c0 -18 -7 -20 -55
-20 l-55 0 0 -60 0 -60 45 0 c38 0 45 -3 45 -20 0 -17 -7 -20 -45 -20 l-45 0
0 -55 0 -55 55 0 c41 0 57 -4 62 -16 11 -28 -11 -35 -91 -28 l-76 7 0 173 0
174 80 0 c73 0 80 -2 80 -20z m-3391 -534 c102 -121 173 -181 276 -231 120
-58 212 -78 355 -77 197 0 338 38 659 176 338 146 419 166 696 173 320 8 445
-23 656 -162 62 -41 117 -75 122 -75 14 0 -1 77 -23 121 -11 21 -33 45 -49 53
-45 24 -57 81 -20 94 39 15 89 1 125 -34 47 -48 62 -81 75 -168 10 -64 9 -86
-5 -142 -39 -155 -57 -158 -187 -31 -179 175 -372 257 -604 256 -171 0 -324
-36 -625 -147 -255 -94 -483 -168 -580 -189 -66 -14 -128 -18 -275 -18 -188 1
-191 1 -272 32 -142 54 -284 159 -398 294 -53 62 -65 83 -65 111 0 42 5 48 41
48 23 0 41 -16 98 -84z"/>
<path d="M1785 3841 c-49 -6 -49 -6 -22 -18 22 -10 27 -19 27 -47 0 -72 19
-81 45 -20 13 31 18 35 47 32 29 -3 37 -10 62 -58 l28 -55 -6 59 c-8 70 2 86
54 86 81 0 95 -80 30 -174 -22 -31 -47 -70 -55 -87 -13 -25 -21 -30 -47 -27
-26 2 -35 12 -59 56 -30 56 -31 56 -41 -12 -4 -26 -30 -40 -59 -33 -18 5 -34
28 -67 97 -31 66 -49 93 -67 100 -19 7 -25 17 -25 40 0 16 -2 30 -5 30 -24 0
-127 -50 -175 -86 -73 -53 -124 -140 -102 -174 17 -27 15 -69 -3 -77 -9 -3
-36 0 -61 7 -38 11 -48 11 -60 -2 -12 -12 -11 -18 15 -42 16 -15 47 -32 70
-37 36 -8 52 -5 132 27 176 68 372 93 582 73 76 -8 132 -22 245 -61 81 -28
160 -50 176 -50 32 2 136 50 136 63 0 29 -106 43 -188 26 -54 -12 -65 -12 -83
1 -22 15 -22 18 -3 123 8 49 -23 118 -69 153 -92 70 -284 107 -452 87z"/>
<path d="M860 2336 c0 -2 -11 -29 -25 -60 l-25 -56 66 0 65 0 -33 60 c-27 50
-48 74 -48 56z"/>
<path d="M1827 2284 c-15 -30 -27 -57 -27 -59 0 -3 27 -5 60 -5 33 0 60 2 60
5 0 11 -50 104 -58 109 -5 3 -20 -20 -35 -50z"/>
<path d="M3980 2280 l-30 -60 65 0 65 0 -30 60 c-17 33 -32 60 -35 60 -3 0
-18 -27 -35 -60z"/>
<path d="M1190 2290 c0 -44 2 -80 5 -80 3 0 21 7 41 15 37 15 65 63 56 97 -6
26 -41 48 -74 48 l-28 0 0 -80z"/>
</g>
</svg>
